# Blender 3.5.1
# www.blender.org
mtllib barrel.mtl
o Barrel
v 0.000000 0.663028 -0.052312
v 0.000000 0.064212 -0.068571
v 0.026156 0.663028 -0.045304
v 0.034286 0.064212 -0.059385
v 0.045304 0.663028 -0.026156
v 0.059385 0.064212 -0.034286
v 0.052312 0.663028 0.000000
v 0.068571 0.064212 0.000000
v 0.045304 0.663028 0.026156
v 0.059385 0.064212 0.034286
v 0.026156 0.663028 0.045304
v 0.034286 0.064212 0.059385
v 0.000000 0.663028 0.052312
v 0.000000 0.064212 0.068571
v -0.026156 0.663028 0.045304
v -0.034286 0.064212 0.059385
v -0.045304 0.663028 0.026156
v -0.059385 0.064212 0.034286
v -0.052312 0.663028 0.000000
v -0.068571 0.064212 0.000000
v -0.045304 0.663028 -0.026156
v -0.059385 0.064212 -0.034286
v -0.026156 0.663028 -0.045304
v -0.034286 0.064212 -0.059385
v 0.000000 0.663028 -0.068571
v 0.034286 0.663028 -0.059385
v 0.059385 0.663028 -0.034286
v 0.068571 0.663028 0.000000
v 0.059385 0.663028 0.034286
v 0.034286 0.663028 0.059385
v 0.000000 0.663028 0.068571
v -0.034286 0.663028 0.059385
v -0.059385 0.663028 0.034286
v -0.068571 0.663028 0.000000
v -0.059385 0.663028 -0.034286
v -0.034286 0.663028 -0.059385
v -0.000000 0.593194 -0.052312
v 0.026156 0.593194 -0.045304
v 0.045304 0.593194 -0.026156
v 0.052312 0.593194 0.000000
v 0.045304 0.593194 0.026156
v 0.026156 0.593194 0.045304
v -0.000000 0.593194 0.052312
v -0.026156 0.593194 0.045304
v -0.045304 0.593194 0.026156
v -0.052312 0.593194 0.000000
v -0.045304 0.593194 -0.026156
v -0.026156 0.593194 -0.045304
v -0.263805 -0.387302 0.263805
v -0.240147 0.425400 0.240147
v -0.263805 -0.387302 -0.263805
v -0.240147 0.425400 -0.240147
v 0.263805 -0.387302 0.263805
v 0.240147 0.425400 0.240147
v 0.263805 -0.387302 -0.263805
v 0.240147 0.425400 -0.240147
v -0.263805 0.425400 0.263805
v -0.263805 0.425400 -0.263805
v 0.263805 0.425400 -0.263805
v 0.263805 0.425400 0.263805
v -0.105593 0.457465 0.105593
v -0.105593 0.457465 -0.105593
v 0.105593 0.457465 -0.105593
v 0.105593 0.457465 0.105593
v -0.240147 0.457465 0.240147
v -0.240147 0.457465 -0.240147
v 0.240147 0.457465 -0.240147
v 0.240147 0.457465 0.240147
v -0.105593 0.082860 0.105593
v -0.105593 0.082860 -0.105593
v 0.105593 0.082860 -0.105593
v 0.105593 0.082860 0.105593
v -0.278371 -0.157112 -0.114364
v -0.278371 -0.157112 0.114364
v -0.278371 0.195210 0.114364
v -0.278371 0.195210 -0.114364
vn -0.2588 -0.0000 0.9659
vn -0.7071 -0.0000 0.7071
vn -0.9659 -0.0000 0.2588
vn -0.9659 -0.0000 -0.2588
vn -0.7071 -0.0000 -0.7071
vn -0.2588 -0.0000 -0.9659
vn 0.2588 -0.0000 -0.9659
vn 0.7071 -0.0000 -0.7071
vn 0.9659 -0.0000 -0.2588
vn 0.9659 -0.0000 0.2588
vn -0.0000 1.0000 -0.0000
vn 0.7071 -0.0000 0.7071
vn 0.2588 -0.0000 0.9659
vn -0.0000 -1.0000 -0.0000
vn -0.9980 0.0632 -0.0000
vn -0.0000 -0.0000 -1.0000
vn 1.0000 -0.0000 -0.0000
vn -0.0000 -0.0000 1.0000
vn -1.0000 -0.0000 -0.0000
vn -0.9980 -0.0632 -0.0000
vn -0.9953 -0.0000 -0.0970
vn -0.9953 -0.0000 0.0970
vt 0.750000 0.433092
vt 1.000000 1.000000
vt 0.250000 0.490000
vt 0.000000 1.000000
vt 0.841546 0.408562
vt 0.916667 1.000000
vt 0.370000 0.457846
vt 0.908562 0.341546
vt 0.833333 1.000000
vt 0.457846 0.370000
vt 0.933092 0.250000
vt 0.750000 1.000000
vt 0.490000 0.250000
vt 0.908562 0.158454
vt 0.666667 1.000000
vt 0.457846 0.130000
vt 0.841546 0.091438
vt 0.583333 1.000000
vt 0.370000 0.042154
vt 0.750000 0.066908
vt 0.500000 1.000000
vt 0.250000 0.010000
vt 0.658454 0.091438
vt 0.416667 1.000000
vt 0.130000 0.042154
vt 0.591438 0.158454
vt 0.333333 1.000000
vt 0.042154 0.130000
vt 0.566908 0.250000
vt 0.250000 1.000000
vt 0.010000 0.250000
vt 0.591438 0.341546
vt 0.042154 0.370000
vt 0.166667 1.000000
vt 0.658454 0.408562
vt 0.130000 0.457846
vt 0.083333 1.000000
vt 1.000000 0.500000
vt 0.000000 0.500000
vt 0.750000 0.490000
vt 0.916667 0.500000
vt 0.870000 0.457846
vt 0.833333 0.500000
vt 0.957846 0.370000
vt 0.750000 0.500000
vt 0.990000 0.250000
vt 0.666667 0.500000
vt 0.957846 0.130000
vt 0.583333 0.500000
vt 0.870000 0.042154
vt 0.500000 0.500000
vt 0.750000 0.010000
vt 0.416667 0.500000
vt 0.630000 0.042154
vt 0.333333 0.500000
vt 0.542154 0.130000
vt 0.250000 0.500000
vt 0.510000 0.250000
vt 0.166667 0.500000
vt 0.542154 0.370000
vt 0.083333 0.500000
vt 0.630000 0.457846
vt 0.750000 0.433092
vt 0.841546 0.408562
vt 0.908562 0.341546
vt 0.933092 0.250000
vt 0.908562 0.158454
vt 0.841546 0.091438
vt 0.750000 0.066908
vt 0.658454 0.091438
vt 0.591438 0.158454
vt 0.566908 0.250000
vt 0.591438 0.341546
vt 0.658454 0.408562
vt 0.125000 0.750000
vt 0.375000 1.000000
vt 0.863790 0.738790
vt 0.125000 0.500000
vt 0.375000 0.250000
vt 0.863790 0.511210
vt 0.375000 0.750000
vt 0.636210 0.738790
vt 0.375000 0.500000
vt 0.636210 0.511210
vt 0.875000 0.750000
vt 0.625000 1.000000
vt 0.875000 0.500000
vt 0.625000 0.250000
vt 0.625000 0.500000
vt 0.625000 0.750000
vt 0.800033 0.675033
vt 0.800033 0.574967
vt 0.699967 0.574967
vt 0.699967 0.675033
vt 0.863790 0.738790
vt 0.863790 0.511210
vt 0.636210 0.511210
vt 0.636210 0.738790
vt 0.800033 0.675033
vt 0.800033 0.574967
vt 0.699967 0.574967
vt 0.699967 0.675033
vt 0.125000 0.500000
vt 0.375000 0.250000
vt 0.375000 0.000000
vt 0.125000 0.750000
vt 0.375000 1.000000
vt 0.875000 0.750000
vt 0.625000 0.000000
vt 0.625000 1.000000
vt 0.875000 0.500000
vt 0.625000 0.250000
s 0
f 25/38/1 2/2/1 4/6/1 26/41/1
f 26/41/2 4/6/2 6/9/2 27/43/2
f 27/43/3 6/9/3 8/12/3 28/45/3
f 28/45/4 8/12/4 10/15/4 29/47/4
f 29/47/5 10/15/5 12/18/5 30/49/5
f 30/49/6 12/18/6 14/21/6 31/51/6
f 31/51/7 14/21/7 16/24/7 32/53/7
f 32/53/8 16/24/8 18/27/8 33/55/8
f 33/55/9 18/27/9 20/30/9 34/57/9
f 34/57/10 20/30/10 22/34/10 35/59/10
f 4/7/11 2/3/11 24/36/11 22/33/11 20/31/11 18/28/11 16/25/11 14/22/11 12/19/11 10/16/11 8/13/11 6/10/11
f 35/59/12 22/34/12 24/37/12 36/61/12
f 36/61/13 24/37/13 2/4/13 25/39/13
f 9/14/12 11/17/12 42/68/12 41/67/12
f 3/5/14 1/1/14 25/40/14 26/42/14
f 5/8/14 3/5/14 26/42/14 27/44/14
f 7/11/14 5/8/14 27/44/14 28/46/14
f 9/14/14 7/11/14 28/46/14 29/48/14
f 11/17/14 9/14/14 29/48/14 30/50/14
f 13/20/14 11/17/14 30/50/14 31/52/14
f 15/23/14 13/20/14 31/52/14 32/54/14
f 17/26/14 15/23/14 32/54/14 33/56/14
f 19/29/14 17/26/14 33/56/14 34/58/14
f 21/32/14 19/29/14 34/58/14 35/60/14
f 23/35/14 21/32/14 35/60/14 36/62/14
f 1/1/14 23/35/14 36/62/14 25/40/14
f 37/63/14 38/64/14 39/65/14 40/66/14 41/67/14 42/68/14 43/69/14 44/70/14 45/71/14 46/72/14 47/73/14 48/74/14
f 23/35/6 1/1/6 37/63/6 48/74/6
f 3/5/8 5/8/8 39/65/8 38/64/8
f 17/26/3 19/29/3 46/72/3 45/71/3
f 11/17/13 13/20/13 43/69/13 42/68/13
f 5/8/9 7/11/9 40/66/9 39/65/9
f 19/29/4 21/32/4 47/73/4 46/72/4
f 13/20/1 15/23/1 44/70/1 43/69/1
f 7/11/10 9/14/10 41/67/10 40/66/10
f 21/32/5 23/35/5 48/74/5 47/73/5
f 1/1/7 3/5/7 38/64/7 37/63/7
f 15/23/2 17/26/2 45/71/2 44/70/2
f 57/85/15 58/87/15 76/111/15 75/108/15
f 51/79/16 58/88/16 59/89/16 55/83/16
f 55/83/17 59/89/17 60/90/17 53/81/17
f 53/81/18 60/90/18 57/86/18 49/76/18
f 51/78/14 55/83/14 53/81/14 49/75/14
f 50/77/18 54/82/18 68/98/18 65/95/18
f 50/77/11 52/80/11 58/87/11 57/85/11
f 52/80/11 56/84/11 59/89/11 58/87/11
f 56/84/11 54/82/11 60/90/11 59/89/11
f 54/82/11 50/77/11 57/85/11 60/90/11
f 62/92/17 61/91/17 69/99/17 70/100/17
f 56/84/16 52/80/16 66/96/16 67/97/16
f 54/82/17 56/84/17 67/97/17 68/98/17
f 52/80/19 50/77/19 65/95/19 66/96/19
f 61/91/11 62/92/11 66/96/11 65/95/11
f 62/92/11 63/93/11 67/97/11 66/96/11
f 63/93/11 64/94/11 68/98/11 67/97/11
f 64/94/11 61/91/11 65/95/11 68/98/11
f 71/101/11 70/100/11 69/99/11 72/102/11
f 61/91/16 64/94/16 72/102/16 69/99/16
f 63/93/18 62/92/18 70/100/18 71/101/18
f 64/94/19 63/93/19 71/101/19 72/102/19
f 74/105/19 75/109/19 76/112/19 73/104/19
f 51/78/20 49/75/20 74/106/20 73/103/20
f 58/88/21 51/79/21 73/104/21 76/112/21
f 49/76/22 57/86/22 75/110/22 74/107/22
